<svg width="192" height="192" viewBox="0 0 192 192" fill="none" xmlns="http://www.w3.org/2000/svg">
  <!-- 배경 -->
  <rect width="192" height="192" rx="36" fill="#3B82F6"/>
  
  <!-- 캘린더 아이콘 -->
  <rect x="36" y="48" width="120" height="108" rx="12" fill="white"/>
  <rect x="36" y="48" width="120" height="30" rx="12" fill="#E5E7EB"/>
  
  <!-- 캘린더 구분선 -->
  <line x1="36" y1="78" x2="156" y2="78" stroke="#3B82F6" stroke-width="3"/>
  
  <!-- 캘린더 링 -->
  <circle cx="66" cy="63" r="6" fill="#3B82F6"/>
  <circle cx="126" cy="63" r="6" fill="#3B82F6"/>
  
  <!-- 교대 근무 표시 (다른 색깔의 날짜들) -->
  <rect x="54" y="90" width="12" height="12" rx="3" fill="#10B981"/>
  <rect x="72" y="90" width="12" height="12" rx="3" fill="#F59E0B"/>
  <rect x="90" y="90" width="12" height="12" rx="3" fill="#EF4444"/>
  <rect x="108" y="90" width="12" height="12" rx="3" fill="#10B981"/>
  <rect x="126" y="90" width="12" height="12" rx="3" fill="#F59E0B"/>
  
  <rect x="54" y="108" width="12" height="12" rx="3" fill="#F59E0B"/>
  <rect x="72" y="108" width="12" height="12" rx="3" fill="#EF4444"/>
  <rect x="90" y="108" width="12" height="12" rx="3" fill="#10B981"/>
  <rect x="108" y="108" width="12" height="12" rx="3" fill="#F59E0B"/>
  <rect x="126" y="108" width="12" height="12" rx="3" fill="#EF4444"/>
  
  <rect x="54" y="126" width="12" height="12" rx="3" fill="#EF4444"/>
  <rect x="72" y="126" width="12" height="12" rx="3" fill="#10B981"/>
  <rect x="90" y="126" width="12" height="12" rx="3" fill="#F59E0B"/>
  <rect x="108" y="126" width="12" height="12" rx="3" fill="#EF4444"/>
  <rect x="126" y="126" width="12" height="12" rx="3" fill="#10B981"/>
</svg>
